<svg width="20" height="20" viewBox="0 0 40 40" fill="none" xmlns="http://www.w3.org/2000/svg">
<path d="M0 0H40V40H0V0Z" fill="#222222"/>
<path d="M20 25L20.7071 25.7071L20 26.4142L19.2929 25.7071L20 25ZM30.7071 15.7071L20.7071 25.7071L19.2929 24.2929L29.2929 14.2929L30.7071 15.7071ZM19.2929 25.7071L9.29289 15.7071L10.7071 14.2929L20.7071 24.2929L19.2929 25.7071Z" fill="#CCD2E3"/>
<path d="M0 0V-1H-1V0H0ZM40 0H41V-1H40V0ZM40 40V41H41V40H40ZM0 40H-1V41H0V40ZM0 1H40V-1H0V1ZM39 0V40H41V0H39ZM40 39H0V41H40V39ZM1 40V0H-1V40H1Z" fill="black"/>
</svg>
