<svg width="32" height="37" viewBox="0 0 32 37" fill="none" xmlns="http://www.w3.org/2000/svg">
<path fill-rule="evenodd" clip-rule="evenodd" d="M16 2.82808C8.74481 2.82808 2.90909 8.4351 2.90909 15.2973C2.90909 20.5149 6.20971 25.1841 9.76044 28.6673C11.5122 30.3858 13.2692 31.7606 14.5897 32.7059C15.1534 33.1094 15.6352 33.433 16 33.67C16.3648 33.433 16.8466 33.1094 17.4103 32.7059C18.7308 31.7606 20.4878 30.3858 22.2396 28.6673C25.7903 25.1841 29.0909 20.5149 29.0909 15.2973C29.0909 8.4351 23.2552 2.82808 16 2.82808ZM16 35.351C15.2516 36.5635 15.2507 36.563 15.2507 36.563L15.246 36.5602L15.2352 36.5538L15.1979 36.5317C15.1663 36.5129 15.1213 36.4858 15.0637 36.4507C14.9486 36.3806 14.7834 36.2781 14.5751 36.1448C14.1587 35.8783 13.5694 35.4876 12.8648 34.9832C11.458 33.9761 9.57866 32.5067 7.69411 30.658C3.97211 27.0068 0 21.6492 0 15.2973C0 6.8245 7.18872 0 16 0C24.8113 0 32 6.8245 32 15.2973C32 21.6492 28.0279 27.0068 24.3059 30.658C22.4213 32.5067 20.542 33.9761 19.1352 34.9832C18.4306 35.4876 17.8413 35.8783 17.4249 36.1448C17.2166 36.2781 17.0514 36.3806 16.9363 36.4507C16.8787 36.4858 16.8337 36.5129 16.8021 36.5317L16.7648 36.5538L16.754 36.5602L16.7505 36.5622C16.7505 36.5622 16.7484 36.5635 16 35.351ZM16 35.351L16.7484 36.5635L16 37L15.2507 36.563L16 35.351Z" fill="black"/>
<path fill-rule="evenodd" clip-rule="evenodd" d="M16 18.3825C17.6066 18.3825 18.9091 17.1163 18.9091 15.5544C18.9091 13.9925 17.6066 12.7263 16 12.7263C14.3934 12.7263 13.0909 13.9925 13.0909 15.5544C13.0909 17.1163 14.3934 18.3825 16 18.3825ZM16 21.2106C19.2133 21.2106 21.8182 18.6782 21.8182 15.5544C21.8182 12.4306 19.2133 9.89827 16 9.89827C12.7867 9.89827 10.1818 12.4306 10.1818 15.5544C10.1818 18.6782 12.7867 21.2106 16 21.2106Z" fill="black"/>
</svg>
