<svg width="45" height="58" viewBox="0 0 45 58" fill="none" xmlns="http://www.w3.org/2000/svg">
<mask id="path-1-outside-1_66:63" maskUnits="userSpaceOnUse" x="-1" y="0" width="47" height="59" fill="black">
<rect fill="white" x="-1" width="47" height="59"/>
<path fill-rule="evenodd" clip-rule="evenodd" d="M1 57C1 57 12.5769 50.7778 15.8846 46.6296C19.1923 42.4815 9.26923 42.4815 9.26923 21.7407C9.26923 1 22.5 1 22.5 1C22.5 1 35.7308 1 35.7308 21.7407C35.7308 42.4815 25.8077 42.4815 29.1154 46.6296C32.4231 50.7778 44 57 44 57"/>
</mask>
<path fill-rule="evenodd" clip-rule="evenodd" d="M1 57C1 57 12.5769 50.7778 15.8846 46.6296C19.1923 42.4815 9.26923 42.4815 9.26923 21.7407C9.26923 1 22.5 1 22.5 1C22.5 1 35.7308 1 35.7308 21.7407C35.7308 42.4815 25.8077 42.4815 29.1154 46.6296C32.4231 50.7778 44 57 44 57" fill="#A66868"/>
<path d="M0.526579 56.1192C0.0401065 56.3806 -0.1423 56.9869 0.119164 57.4734C0.380627 57.9599 0.986949 58.1423 1.47342 57.8808L0.526579 56.1192ZM43.5266 57.8808C44.0131 58.1423 44.6194 57.9599 44.8808 57.4734C45.1423 56.9869 44.9599 56.3806 44.4734 56.1192L43.5266 57.8808ZM1 57C1.47342 57.8808 1.47353 57.8808 1.47369 57.8807C1.4738 57.8806 1.474 57.8805 1.47422 57.8804C1.47467 57.8802 1.47529 57.8798 1.47608 57.8794C1.47767 57.8786 1.47996 57.8773 1.48293 57.8757C1.48888 57.8725 1.49759 57.8678 1.50897 57.8617C1.53175 57.8493 1.56524 57.8312 1.60884 57.8075C1.69605 57.76 1.82373 57.6902 1.98703 57.6001C2.3136 57.4199 2.78281 57.1584 3.35581 56.8317C4.50118 56.1788 6.06427 55.2641 7.73317 54.2176C9.40028 53.1722 11.1833 51.989 12.7647 50.7991C14.3316 49.62 15.7583 48.3921 16.6665 47.2531L15.1028 46.0062C14.3571 46.9413 13.0963 48.0466 11.5622 49.2009C10.0426 50.3443 8.31126 51.4944 6.67068 52.5232C5.03189 53.5508 3.49401 54.4508 2.36535 55.0942C1.80132 55.4157 1.34025 55.6727 1.02078 55.849C0.861061 55.9371 0.73679 56.0051 0.6528 56.0508C0.610807 56.0736 0.578888 56.0909 0.557648 56.1024C0.547028 56.1081 0.539079 56.1124 0.533876 56.1152C0.531274 56.1166 0.529359 56.1177 0.528139 56.1183C0.52753 56.1187 0.527094 56.1189 0.526834 56.119C0.526703 56.1191 0.52664 56.1191 0.526574 56.1192C0.526555 56.1192 0.526579 56.1192 1 57ZM16.6665 47.2531C17.1526 46.6435 17.4733 46.0134 17.5447 45.3227C17.6167 44.6268 17.4211 44.0068 17.1363 43.4512C16.8604 42.913 16.4616 42.363 16.0487 41.8054C15.6218 41.2288 15.1495 40.6053 14.6502 39.854C12.697 36.9145 10.2692 31.9236 10.2692 21.7407H8.26923C8.26923 32.2986 10.803 37.6781 12.9844 40.9609C13.5188 41.7651 14.0285 42.4379 14.4414 42.9955C14.8683 43.5721 15.1673 43.9944 15.3565 44.3636C15.5368 44.7154 15.5738 44.9381 15.5553 45.1171C15.5363 45.3014 15.4436 45.5788 15.1028 46.0062L16.6665 47.2531ZM10.2692 21.7407C10.2692 11.5983 13.4919 6.73857 16.5015 4.37964C18.0267 3.18422 19.5491 2.5885 20.6855 2.2916C21.2534 2.1432 21.7224 2.07017 22.0428 2.0343C22.2028 2.01638 22.3251 2.0078 22.4036 2.0037C22.4428 2.00165 22.471 2.00073 22.4873 2.00031C22.4955 2.00011 22.5007 2.00003 22.5029 2C22.5039 1.99999 22.5042 1.99999 22.5038 1.99999C22.5035 1.99999 22.5031 1.99999 22.5025 2C22.5022 2 22.5015 2 22.5014 2C22.5007 2 22.5 2 22.5 1C22.5 0 22.4992 2.98023e-07 22.4983 1.3113e-06C22.498 1.90735e-06 22.497 3.8743e-06 22.4963 5.96046e-06C22.4949 1.03712e-05 22.4933 1.75834e-05 22.4914 2.89083e-05C22.4877 5.16176e-05 22.4833 9.07183e-05 22.478 0.000156522C22.4674 0.00028801 22.4536 0.00052613 22.4368 0.000952423C22.4031 0.00180501 22.3569 0.00341111 22.2992 0.0064261C22.1839 0.0124541 22.022 0.0241265 21.8202 0.0467198C21.417 0.0918702 20.8523 0.18087 20.1799 0.356551C18.8355 0.707794 17.0503 1.40837 15.2677 2.80555C11.6619 5.6318 8.26923 11.1425 8.26923 21.7407H10.2692ZM22.5 1C22.5 2 22.4993 2 22.4986 2C22.4985 2 22.4978 2 22.4975 2C22.4969 1.99999 22.4965 1.99999 22.4962 1.99999C22.4958 1.99999 22.4961 1.99999 22.4972 2C22.4993 2.00003 22.5045 2.00011 22.5127 2.00031C22.529 2.00073 22.5572 2.00165 22.5964 2.0037C22.6749 2.0078 22.7972 2.01638 22.9572 2.0343C23.2776 2.07017 23.7466 2.1432 24.3145 2.2916C25.4509 2.5885 26.9733 3.18422 28.4985 4.37964C31.5081 6.73857 34.7308 11.5983 34.7308 21.7407H36.7308C36.7308 11.1425 33.3381 5.6318 29.7323 2.80555C27.9497 1.40837 26.1645 0.707794 24.8201 0.356551C24.1477 0.18087 23.583 0.0918702 23.1798 0.0467198C22.978 0.0241265 22.8161 0.0124541 22.7008 0.0064261C22.6431 0.00341111 22.597 0.00180501 22.5632 0.000952423C22.5464 0.00052613 22.5326 0.00028801 22.522 0.000156522C22.5167 9.07183e-05 22.5123 5.16176e-05 22.5086 2.89083e-05C22.5067 1.75834e-05 22.5051 1.03712e-05 22.5037 5.96046e-06C22.503 3.8743e-06 22.502 1.90735e-06 22.5017 1.3113e-06C22.5008 2.98023e-07 22.5 0 22.5 1ZM34.7308 21.7407C34.7308 31.9236 32.303 36.9145 30.3498 39.854C29.8505 40.6053 29.3783 41.2288 28.9513 41.8054C28.5384 42.363 28.1396 42.913 27.8637 43.4512C27.5789 44.0068 27.3833 44.6268 27.4553 45.3227C27.5267 46.0134 27.8474 46.6435 28.3335 47.2531L29.8972 46.0062C29.5564 45.5788 29.4637 45.3014 29.4447 45.1171C29.4262 44.9381 29.4632 44.7154 29.6435 44.3636C29.8327 43.9944 30.1317 43.5721 30.5586 42.9955C30.9715 42.4379 31.4812 41.7651 32.0156 40.9609C34.197 37.6781 36.7308 32.2986 36.7308 21.7407H34.7308ZM28.3335 47.2531C29.2417 48.3921 30.6684 49.62 32.2353 50.7991C33.8167 51.989 35.5997 53.1722 37.2668 54.2176C38.9357 55.2641 40.4988 56.1788 41.6442 56.8317C42.2172 57.1584 42.6864 57.4199 43.013 57.6001C43.1763 57.6902 43.3039 57.76 43.3912 57.8075C43.4348 57.8312 43.4683 57.8493 43.491 57.8617C43.5024 57.8678 43.5111 57.8725 43.5171 57.8757C43.52 57.8773 43.5223 57.8786 43.5239 57.8794C43.5247 57.8798 43.5253 57.8802 43.5258 57.8804C43.526 57.8805 43.5262 57.8806 43.5263 57.8807C43.5265 57.8808 43.5266 57.8808 44 57C44.4734 56.1192 44.4734 56.1192 44.4734 56.1192C44.4734 56.1191 44.4733 56.1191 44.4732 56.119C44.4729 56.1189 44.4725 56.1187 44.4719 56.1183C44.4706 56.1177 44.4687 56.1166 44.4661 56.1152C44.4609 56.1124 44.453 56.1081 44.4424 56.1024C44.4211 56.0909 44.3892 56.0736 44.3472 56.0508C44.2632 56.0051 44.1389 55.9371 43.9792 55.849C43.6598 55.6727 43.1987 55.4157 42.6347 55.0942C41.506 54.4508 39.9681 53.5508 38.3293 52.5232C36.6887 51.4944 34.9574 50.3443 33.4378 49.2009C31.9037 48.0466 30.6429 46.9413 29.8972 46.0062L28.3335 47.2531Z" fill="black" mask="url(#path-1-outside-1_66:63)"/>
</svg>
